<?xml version="1.0" encoding="utf-8"?>
<!-- Generator: Adobe Illustrator 24.1.0, SVG Export Plug-In . SVG Version: 6.00 Build 0)  -->
<svg version="1.1" id="Laag_1" xmlns="http://www.w3.org/2000/svg" xmlns:xlink="http://www.w3.org/1999/xlink" x="0px" y="0px"
	 viewBox="0 0 681 103" style="enable-background:new 0 0 681 103;" xml:space="preserve">
<style type="text/css">
	.st0{fill:#80D060;}
	.st1{fill:#1F4A7B;}
</style>
<path class="st0" d="M358.5,83.7c2.8,0.1,5.6-0.5,8.2-1.6c2.1-1,3.4-3.2,3.2-5.5c0-1.1-0.2-2.2-0.6-3.2c-0.4-0.9-1.1-1.7-1.9-2.4
	c-1.1-0.8-2.3-1.5-3.5-2c-1.5-0.7-3.2-1.4-5.4-2.3c-1.7-0.7-3.3-1.4-4.9-2.2c-1.5-0.7-2.8-1.5-4.1-2.6c-1.2-1-2.1-2.2-2.8-3.5
	c-0.8-1.6-1.1-3.3-1.1-5c-0.1-3.5,1.5-6.8,4.2-9c2.8-2.3,6.7-3.5,11.6-3.5c2.6-0.1,5.2,0.2,7.8,0.8c1.5,0.3,2.9,0.8,4.3,1.4
	l-1.3,5.1c-1.2-0.5-2.4-1-3.6-1.4c-2.4-0.7-4.9-1-7.4-0.9c-1.2,0-2.5,0.1-3.7,0.4c-1.1,0.2-2.1,0.7-3.1,1.2
	c-0.9,0.5-1.6,1.3-2.1,2.1c-0.6,1-0.8,2.1-0.8,3.2c0,1.1,0.2,2.2,0.7,3.2c0.5,0.9,1.2,1.7,2.1,2.3c1,0.8,2.2,1.4,3.4,1.9
	c1.3,0.6,2.9,1.2,4.6,2s3.5,1.4,5.1,2.2c1.5,0.7,3,1.6,4.3,2.7c1.2,1,2.3,2.3,3,3.7c0.8,1.7,1.2,3.6,1.1,5.4c0,4.1-1.6,7.3-4.7,9.4
	s-7.3,3.2-12.7,3.2c-3.1,0.1-6.2-0.2-9.2-1c-1.5-0.4-2.9-0.9-4.3-1.6l1.5-5.2c0.4,0.2,0.8,0.4,1.1,0.6c1.9,0.8,3.9,1.4,6,1.7
	C355.3,83.7,356.9,83.8,358.5,83.7z"/>
<path class="st0" d="M425,64.9c0,3.3-0.5,6.7-1.5,9.8c-0.9,2.8-2.4,5.3-4.4,7.5c-1.8,2.1-4.1,3.7-6.6,4.8c-5.4,2.3-11.5,2.3-16.9,0
	c-2.5-1.1-4.8-2.8-6.6-4.8c-1.9-2.2-3.4-4.8-4.4-7.5c-1.1-3.2-1.6-6.5-1.5-9.8c0-3.3,0.5-6.7,1.5-9.8c0.9-2.8,2.4-5.4,4.3-7.6
	c1.8-2.1,4.1-3.7,6.6-4.9c5.4-2.3,11.5-2.3,16.9,0c2.5,1.1,4.8,2.8,6.6,4.9c1.9,2.2,3.4,4.8,4.4,7.6C424.5,58.3,425,61.6,425,64.9z
	 M418.9,64.9c0-5.7-1.3-10.3-4-13.7c-4.9-6-13.7-6.8-19.7-1.9c-0.7,0.6-1.3,1.2-1.9,1.9c-2.7,3.4-4,8-4,13.7s1.3,10.3,4,13.7
	c5,6,13.9,6.8,19.9,1.8c0.6-0.5,1.2-1.1,1.8-1.8C417.5,75.2,418.8,70.7,418.9,64.9L418.9,64.9z"/>
<path class="st0" d="M453.1,19c2,0,4.1,0.1,6.1,0.6c1.1,0.2,2.1,0.5,3.1,1l-1.1,5c-0.9-0.4-1.9-0.7-2.9-0.9
	c-1.6-0.4-3.2-0.5-4.8-0.5c-4.1,0-7,1-8.7,3.1s-2.6,5.4-2.6,9.9V42h18.5v4.9H442v41h-5.8V37c0-6,1.4-10.5,4.1-13.5
	S447.3,19,453.1,19z"/>
<path class="st0" d="M474,42h18.3v4.9H474v24.4c-0.1,2.1,0.2,4.3,0.7,6.3c0.3,1.4,1,2.7,1.9,3.8c0.8,0.9,1.9,1.5,3,1.8
	c1.3,0.3,2.6,0.5,3.9,0.4c2,0.1,4-0.2,5.9-0.8c1.2-0.4,2.3-0.9,3.5-1.6l1.4,4.8c-1.4,0.8-2.8,1.4-4.4,1.8c-2.2,0.7-4.4,1-6.7,1
	c-2.4,0.1-4.8-0.3-7.1-1.1c-1.8-0.7-3.4-1.8-4.6-3.4c-1.2-1.7-2.1-3.6-2.4-5.6c-0.5-2.6-0.8-5.3-0.7-8V28.5l5.8-1.1V42H474z"/>
<path class="st0" d="M531.3,42c0.5,3,1.2,6.1,2.1,9.4c0.9,3.3,1.8,6.7,2.8,10.2c1,3.5,2.1,6.9,3.3,10.2c1.2,3.4,2.3,6.5,3.5,9.5
	c1-2.2,2.1-5,3.2-8.2s2.3-6.6,3.4-10.2c1.1-3.6,2.2-7.2,3.2-10.8s1.8-7,2.5-10.2h5.7c-2.1,9-4.5,17.2-7,24.7s-5.3,14.5-8.3,21.2
	h-5.3c-0.9-2.1-1.8-4.4-2.8-7s-2-5.3-3-8.2s-2-6-3-9.2s-1.9-6.5-2.8-9.9c-0.9,3.4-1.8,6.7-2.8,9.9c-1,3.2-2,6.3-3,9.2
	c-1,2.9-2,5.7-3,8.2s-1.9,4.9-2.8,6.9h-5.5c-3.1-6.9-5.9-14-8.3-21.2c-2.6-7.5-4.9-15.7-7-24.7h6.1c0.7,3.1,1.5,6.5,2.5,10.2
	s2,7.2,3.2,10.8c1.1,3.6,2.3,7,3.4,10.1c1.2,3.2,2.2,5.9,3.3,8.2c1.1-3,2.3-6.1,3.4-9.5s2.2-6.8,3.2-10.2s1.9-6.8,2.8-10.2
	s1.7-6.5,2.4-9.4L531.3,42z"/>
<path class="st0" d="M583.3,40.9c2.6-0.1,5.2,0.4,7.7,1.3c2,0.8,3.7,2,5.1,3.5c1.3,1.6,2.3,3.4,2.8,5.4c0.6,2.2,0.9,4.5,0.9,6.7
	v28.9c-0.8,0.2-1.7,0.4-2.6,0.6c-1.1,0.2-2.4,0.4-3.9,0.7s-3.1,0.4-4.9,0.6s-3.7,0.2-5.5,0.2c-2.3,0-4.5-0.2-6.7-0.8
	c-1.9-0.5-3.7-1.3-5.3-2.5c-1.5-1.2-2.8-2.7-3.5-4.5c-0.9-2.1-1.4-4.3-1.3-6.6c-0.1-2.2,0.4-4.4,1.4-6.4c0.9-1.8,2.3-3.3,4-4.4
	c1.9-1.2,3.9-2.1,6.1-2.5c2.5-0.5,5.1-0.8,7.7-0.8c0.8,0,1.7,0,2.6,0.1s1.8,0.2,2.7,0.4s1.6,0.3,2.2,0.4c0.4,0.1,0.9,0.2,1.3,0.4
	v-2.8c0-1.6-0.1-3.1-0.4-4.7c-0.2-1.5-0.7-2.9-1.5-4.1c-0.8-1.3-2-2.3-3.4-2.9c-1.8-0.8-3.8-1.2-5.7-1.1c-2.5-0.1-5.1,0.1-7.5,0.7
	c-1.7,0.5-2.9,0.9-3.6,1.2l-0.8-5.1c1.5-0.6,3.1-1.1,4.7-1.3C578.2,41.1,580.8,40.9,583.3,40.9z M583.9,83.6c2.2,0,4.2-0.1,5.9-0.2
	c1.4-0.1,2.9-0.3,4.3-0.6V66.7c-1-0.4-2-0.7-3.1-0.9c-1.9-0.4-3.9-0.5-5.9-0.5c-1.5,0-3,0.1-4.4,0.3c-1.5,0.2-2.9,0.6-4.3,1.3
	c-1.3,0.7-2.4,1.6-3.2,2.8c-0.9,1.4-1.3,3-1.2,4.7c0,1.5,0.2,3,0.8,4.3c0.5,1.1,1.4,2.1,2.4,2.8c1.1,0.8,2.4,1.3,3.7,1.6
	C580.5,83.5,582.2,83.7,583.9,83.6L583.9,83.6z"/>
<path class="st0" d="M629,41.1c1.8,0,3.6,0.1,5.4,0.4c1.2,0.2,2.4,0.5,3.5,0.9l-1.2,5c-0.9-0.4-1.9-0.6-2.9-0.8
	c-1.9-0.3-3.8-0.4-5.7-0.4c-2,0-4,0.1-6,0.5c-1,0.2-2,0.5-3,0.9v40.1h-5.8V44.1c2-0.8,4-1.5,6.1-2C622.6,41.4,625.8,41,629,41.1z"/>
<path class="st0" d="M642.7,64.8c-0.1-3.6,0.5-7.1,1.7-10.5c1-2.8,2.5-5.3,4.5-7.5c1.8-1.9,3.9-3.5,6.4-4.5c2.3-1,4.9-1.5,7.4-1.5
	c5.6,0,10.1,1.8,13.4,5.5s5,9.3,5,16.9c0,0.5,0,0.9,0,1.4s-0.1,0.9-0.1,1.3h-32.2c0.2,5.6,1.6,10,4.2,13s6.7,4.6,12.4,4.5
	c2.5,0.1,5-0.2,7.4-0.9c1.4-0.4,2.7-0.9,4-1.5l1.1,5c-1.5,0.7-3.1,1.3-4.7,1.7c-2.6,0.7-5.3,1-8,1c-3.5,0-7-0.6-10.3-1.9
	c-2.7-1.1-5.1-2.8-7-5s-3.3-4.8-4-7.6C643.1,71.3,642.7,68.1,642.7,64.8z M675.3,61.2c-0.1-4.8-1.2-8.5-3.4-11.2s-5.1-4-9-4
	c-1.9,0-3.8,0.4-5.5,1.2c-1.6,0.8-3.1,1.9-4.2,3.3c-1.2,1.4-2.2,3.1-2.8,4.8c-0.7,1.9-1.1,3.8-1.2,5.8L675.3,61.2z"/>
<path class="st1" d="M75.8,52h29.7V-0.2h-47v30.4C68.6,32.5,75.8,41.6,75.8,52z"/>
<path class="st1" d="M75.1,57.6c-2.6,9.9-11.5,16.8-21.7,16.8v28.3h45.2V57.6H75.1z"/>
<path class="st1" d="M31,53.2H6.8v42.2h42.1V74C38.9,72,31.5,63.4,31,53.2z"/>
<path class="st1" d="M52.8,29.6V7.4H-0.3v40.1h31.8C33.5,37.3,42.4,29.9,52.8,29.6z"/>
<circle class="st0" cx="53.4" cy="52" r="16.8"/>
<path class="st1" d="M169.5,29.8c-6.9,0-12.2,2.1-15.9,6.4s-5.5,10.3-5.5,17.9c0,3.4,0.4,6.7,1.3,9.9c0.8,2.8,2.1,5.4,3.9,7.7
	c1.7,2.1,3.9,3.9,6.4,5c2.8,1.3,5.9,1.9,9,1.8c2.1,0,4-0.1,5.5-0.2c1.2-0.1,2.5-0.3,3.7-0.6V53.5h12.2v32.3
	c-2.8,0.9-5.6,1.7-8.5,2.1c-4.6,0.8-9.2,1.2-13.9,1.2c-4.5,0.1-9-0.7-13.3-2.3c-3.9-1.4-7.4-3.7-10.3-6.7c-2.9-3.2-5.2-6.9-6.5-11
	c-1.6-4.8-2.4-9.9-2.3-14.9c-0.1-5.1,0.8-10.2,2.6-14.9c1.6-4.1,3.9-7.8,7-11c3-3,6.5-5.3,10.5-6.8c4.1-1.6,8.4-2.4,12.8-2.3
	c2.8,0,5.5,0.2,8.3,0.6c2.1,0.3,4.2,0.8,6.2,1.4c1.5,0.4,2.9,1,4.3,1.6c1.1,0.6,1.9,1,2.4,1.3l-3.7,10c-2.3-1.3-4.7-2.3-7.2-3
	C175.6,30.1,172.5,29.7,169.5,29.8z"/>
<path class="st1" d="M261.3,54.1c0.1,5.2-0.8,10.3-2.7,15.2c-1.7,4.1-4.3,7.8-7.7,10.8c-3.5,3-7.6,5.2-12,6.4
	c-5.1,1.4-10.3,2.1-15.6,2.1c-2.7,0-5.8-0.1-9.2-0.3c-3.3-0.2-6.6-0.7-9.8-1.4V21.5c3.3-0.7,6.6-1.2,9.9-1.4
	c3.5-0.2,6.6-0.3,9.3-0.3c5.2-0.1,10.4,0.6,15.4,2c4.4,1.2,8.5,3.3,12,6.2c3.4,2.9,6,6.5,7.7,10.7C260.5,43.6,261.4,48.8,261.3,54.1
	z M216.5,77.6c0.7,0.1,1.6,0.1,2.8,0.2s2.8,0,4.8,0c8.2,0,14.3-2.1,18.4-6.2c4-4.2,6.1-10,6.1-17.5c0-7.6-2-13.5-5.9-17.5
	s-10-6.1-18.3-6.1c-2.6,0-5.2,0-7.8,0.3L216.5,77.6z"/>
<path class="st1" d="M314.8,87.7c-1.7-2.6-3.6-5.3-5.8-8.1s-4.5-5.6-6.9-8.2c-2.4-2.7-4.9-5.2-7.5-7.5c-2.4-2.2-5-4.3-7.7-6.2v30.1
	h-12.2V20.5h12.2v27.7c2.1-2.1,4.4-4.4,6.7-6.8s4.6-4.9,6.9-7.4s4.5-4.9,6.5-7.2s3.9-4.4,5.6-6.3h14.6c-2.1,2.5-4.4,5-6.8,7.7
	c-2.4,2.6-4.9,5.3-7.4,8s-5.1,5.3-7.6,8c-2.6,2.7-5.1,5.2-7.5,7.5c2.9,2.2,5.7,4.7,8.3,7.2c2.8,2.8,5.6,5.7,8.3,8.8s5.3,6.4,7.8,9.8
	s4.8,6.8,6.8,10.1L314.8,87.7z"/>
</svg>
